<svg id="Layer_1" data-name="Layer 1" xmlns="http://www.w3.org/2000/svg" xmlns:xlink="http://www.w3.org/1999/xlink" viewBox="0 0 1372.42 1217.46">
  <defs>
    <style>
      .cls-1, .cls-15 {
        fill: #fff;
      }

      .cls-1, .cls-2 {
        opacity: 0.67;
      }

      .cls-11, .cls-13, .cls-2, .cls-21, .cls-3, .cls-4, .cls-5, .cls-6, .cls-8, .cls-9 {
        stroke: #000;
      }

      .cls-10, .cls-11, .cls-12, .cls-13, .cls-14, .cls-15, .cls-16, .cls-17, .cls-18, .cls-19, .cls-2, .cls-20, .cls-21, .cls-22, .cls-3, .cls-4, .cls-5, .cls-6, .cls-8, .cls-9 {
        stroke-miterlimit: 10;
      }

      .cls-2 {
        stroke-width: 3px;
        fill: url(#linear-gradient);
      }

      .cls-3, .cls-4, .cls-5, .cls-6 {
        stroke-width: 8px;
      }

      .cls-3 {
        fill: url(#linear-gradient-2);
      }

      .cls-4 {
        fill: url(#linear-gradient-3);
      }

      .cls-5 {
        fill: url(#linear-gradient-4);
      }

      .cls-6 {
        fill: url(#linear-gradient-5);
      }

      .cls-7 {
        opacity: 0.42;
      }

      .cls-10, .cls-11, .cls-21, .cls-22, .cls-8, .cls-9 {
        stroke-width: 13px;
      }

      .cls-8 {
        fill: url(#linear-gradient-6);
      }

      .cls-9 {
        fill: url(#linear-gradient-7);
      }

      .cls-10, .cls-12, .cls-14, .cls-15, .cls-16, .cls-17, .cls-18, .cls-19, .cls-20, .cls-22 {
        stroke: #fff;
      }

      .cls-10 {
        fill: url(#linear-gradient-8);
      }

      .cls-11 {
        fill: lime;
      }

      .cls-12, .cls-13, .cls-14 {
        stroke-width: 7px;
      }

      .cls-12 {
        fill: url(#linear-gradient-9);
      }

      .cls-13 {
        fill: #fcee21;
      }

      .cls-14 {
        fill: none;
      }

      .cls-15, .cls-16, .cls-17, .cls-18, .cls-19, .cls-20 {
        stroke-width: 5px;
      }

      .cls-16 {
        fill: url(#linear-gradient-10);
      }

      .cls-17 {
        fill: url(#linear-gradient-11);
      }

      .cls-18 {
        fill: url(#linear-gradient-12);
      }

      .cls-19 {
        fill: url(#linear-gradient-13);
      }

      .cls-20 {
        fill: url(#linear-gradient-14);
      }

      .cls-21 {
        fill: url(#linear-gradient-15);
      }

      .cls-22 {
        fill: url(#linear-gradient-16);
      }
    </style>
    <linearGradient id="linear-gradient" x1="9.42" y1="606.81" x2="1367.77" y2="606.81" gradientUnits="userSpaceOnUse">
      <stop offset="0" stop-color="#d91e18"/>
      <stop offset="1" stop-color="gold"/>
    </linearGradient>
    <linearGradient id="linear-gradient-2" x1="1085.8" y1="1970.77" x2="1274.04" y2="1970.77" gradientUnits="userSpaceOnUse">
      <stop offset="0" stop-color="gold"/>
      <stop offset="0.03" stop-color="#f9b904"/>
      <stop offset="0.08" stop-color="#f19509"/>
      <stop offset="0.14" stop-color="#eb750d"/>
      <stop offset="0.2" stop-color="#e55910"/>
      <stop offset="0.27" stop-color="#e14313"/>
      <stop offset="0.36" stop-color="#dd3215"/>
      <stop offset="0.46" stop-color="#db2717"/>
      <stop offset="0.6" stop-color="#d92018"/>
      <stop offset="1" stop-color="#d91e18"/>
    </linearGradient>
    <linearGradient id="linear-gradient-3" x1="1263.61" y1="1919.71" x2="1457.35" y2="1919.71" xlink:href="#linear-gradient-2"/>
    <linearGradient id="linear-gradient-4" x1="1478.31" y1="1887.79" x2="1695.95" y2="1887.79" xlink:href="#linear-gradient-2"/>
    <linearGradient id="linear-gradient-5" x1="1704.12" y1="1846.69" x2="1905.49" y2="1846.69" xlink:href="#linear-gradient-2"/>
    <linearGradient id="linear-gradient-6" x1="1043.2" y1="1426.61" x2="1830.2" y2="1426.61" gradientTransform="translate(13.89 84.06)" xlink:href="#linear-gradient"/>
    <linearGradient id="linear-gradient-7" x1="1042.2" y1="1611.93" x2="1829.2" y2="1611.93" gradientTransform="translate(-91.58 198.79) rotate(-4.41)" xlink:href="#linear-gradient"/>
    <linearGradient id="linear-gradient-8" x1="1049.2" y1="1618.86" x2="1818.7" y2="1618.86" gradientTransform="translate(-91.58 198.79) rotate(-4.41)" xlink:href="#linear-gradient"/>
    <linearGradient id="linear-gradient-9" x1="982.8" y1="1570.32" x2="1923.25" y2="1570.32" gradientUnits="userSpaceOnUse">
      <stop offset="0" stop-color="#009409"/>
      <stop offset="1" stop-color="#0fdf3d" stop-opacity="0.7"/>
    </linearGradient>
    <linearGradient id="linear-gradient-10" x1="1323.52" y1="1523.13" x2="1801.52" y2="1523.13" gradientUnits="userSpaceOnUse">
      <stop offset="0" stop-color="#d91e18"/>
      <stop offset="1" stop-color="#ff6700"/>
    </linearGradient>
    <linearGradient id="linear-gradient-11" x1="1322.52" y1="1484.13" x2="1800.52" y2="1484.13" gradientUnits="userSpaceOnUse">
      <stop offset="0" stop-color="#d91e18"/>
      <stop offset="1" stop-color="#d91e18"/>
    </linearGradient>
    <linearGradient id="linear-gradient-12" x1="327.82" y1="479.77" x2="665.61" y2="479.77" xlink:href="#linear-gradient-10"/>
    <linearGradient id="linear-gradient-13" x1="327.11" y1="440.77" x2="664.9" y2="440.77" xlink:href="#linear-gradient-11"/>
    <linearGradient id="linear-gradient-14" x1="1093.59" y1="1467.65" x2="1430.59" y2="1467.65" xlink:href="#linear-gradient-11"/>
    <linearGradient id="linear-gradient-15" x1="1043.2" y1="1277.5" x2="1830.2" y2="1277.5" gradientTransform="translate(-91.58 198.79) rotate(-4.41)" xlink:href="#linear-gradient"/>
    <linearGradient id="linear-gradient-16" x1="1059.2" y1="1273.86" x2="1812.7" y2="1273.86" gradientTransform="translate(-91.58 198.79) rotate(-4.41)" xlink:href="#linear-gradient"/>
  </defs>
  <g>
    <polygon class="cls-1" points="1005.4 56.52 335.13 56.52 0 636.99 335.13 1217.46 1005.4 1217.46 1340.53 636.99 1005.4 56.52"/>
    <polygon class="cls-1" points="1037.28 0 367.02 0 31.89 580.47 367.02 1160.93 1037.28 1160.93 1372.41 580.47 1037.28 0"/>
    <polygon class="cls-2" points="1028.18 18.63 349.01 18.63 9.42 606.81 349.01 1194.99 1028.18 1194.99 1367.77 606.81 1028.18 18.63"/>
    <g>
      <path class="cls-3" d="M1250.34,1875.69,1237,1923.85l-4.25-1.4c-.09-.92-.19-1.66-.3-2.21q-.93-4.6-9.89-8.32-27.6-12-60.22-5.36a84.9,84.9,0,0,0-24.71,8.67,31,31,0,0,0-11.33,10.77,17.53,17.53,0,0,0-2.57,12.82q2.12,10.46,15.52,11.69,6.92.59,28.83-1.59l21.78-2.14q19.44-1.82,31.91-.66a73.79,73.79,0,0,1,22.87,5.7,47.45,47.45,0,0,1,18.15,14.56,52.76,52.76,0,0,1,10.07,22.14,53.89,53.89,0,0,1-5.61,37.32q-8.61,16.17-31.32,27.69a144.78,144.78,0,0,1-37.45,12.8q-36.84,7.46-76.29-3-8.34-2-9.83-1.69c-1.17.24-2.83,1.61-5,4.12l-4.36-1.24L1114,2015l4.32,1.1q.26,1.23.36,1.77,1.24,6.12,8.13,10.1,10.42,6.09,30.07,8.06a121.31,121.31,0,0,0,36.22-1.38q18.08-3.66,29.62-12.35a30.69,30.69,0,0,0,9.46-11.3,19.74,19.74,0,0,0,1.83-12.59q-1.86-9.22-12.58-11.15-7.49-1.31-29,.65l-21.38,2.06q-21.49,2.08-30.6,1.87a78.23,78.23,0,0,1-18.68-2.8,46.16,46.16,0,0,1-23.15-14.44,50.45,50.45,0,0,1-11.5-24q-4.77-23.52,8.3-42.17,17.1-24.56,59.51-33.14a147.49,147.49,0,0,1,33.9-3.09q16.08.51,41,5.56,8.51,1.55,10.28,1.19c1.91-.39,3.91-1.88,6-4.49Z" transform="translate(-765.41 -1027.37)"/>
      <path class="cls-4" d="M1383.83,1864.16l28.46,140.68c.56,2.81,1.63,4.81,3.19,6s4.07,1.91,7.51,2.16l.88,4.35-57.9,11.71-.88-4.35c3.08-1.56,5.1-3.2,6.08-4.91s1.18-4,.61-6.77l-28.45-140.68L1285.69,1884a9.58,9.58,0,0,0-5.87,3.13q-1.8,2.31-2.15,7.55l-4.35.88-9.71-48,4.35-.88q2.51,4.65,5,6.1t6.56.62L1435.14,1822c2.8-.57,4.81-1.63,6-3.17s1.91-4,2.15-7.54l4.35-.88,9.7,48-4.35.88q-2.36-4.7-4.91-6.12t-6.77-.57Z" transform="translate(-765.41 -1027.37)"/>
      <path class="cls-5" d="M1567.34,1791.81q48.56-9.82,82.28,10.66,35.61,21.38,44.41,64.87a94.12,94.12,0,0,1-4.35,52.66q-19,50.84-83.22,63.81-48.15,9.74-81.88-10.74a93.22,93.22,0,0,1-29.91-28.9,98.45,98.45,0,0,1-14.28-34.89,97,97,0,0,1,4-53.85Q1502.77,1805.72,1567.34,1791.81Zm6.51,31.51q-26.53,5.36-41,24.69-17.19,22.85-11.1,53t30.82,44.51q20.87,12.16,47.68,6.75t41.17-24.72a63.1,63.1,0,0,0,11.41-26.2,67.33,67.33,0,0,0-.16-26q-6.36-31.5-31-45.32Q1600.7,1818.18,1573.85,1823.32Z" transform="translate(-765.41 -1027.37)"/>
      <path class="cls-6" d="M1775.62,1867.82,1788,1929a9.48,9.48,0,0,0,3.25,5.92c1.62,1.23,4.09,1.93,7.43,2.1l.88,4.35-57.9,11.72-.88-4.35c3.08-1.57,5.11-3.2,6.08-4.91s1.19-3.92.64-6.64l-31.78-157.12q-.86-4.21-3.2-6t-7.51-2.16l-.88-4.35,115.8-23.43q20.25-4.09,32.7-3.78a57.66,57.66,0,0,1,22.9,5.13,48.17,48.17,0,0,1,18.36,15.24,60.44,60.44,0,0,1,10.3,23.67q3.79,18.75-3.4,34.92a48.09,48.09,0,0,1-19.56,21.86q-13.32,8-39,13.19Zm-6.19-30.59,61.85-12.51q18.48-3.73,25.16-9.19a19.26,19.26,0,0,0,6-9.78,27.18,27.18,0,0,0,.4-13,26.74,26.74,0,0,0-5.41-11.71,19.21,19.21,0,0,0-9.34-6.67q-8.13-2.46-26.76,1.31l-61.84,12.51Z" transform="translate(-765.41 -1027.37)"/>
    </g>
    <path class="cls-7" d="M1760,1814.77l-568.6,43.87a108.37,108.37,0,0,1-116.37-99.7l-9.46-122.64c56.46,30.58,203.81,100.68,401.47,85.37,197.41-15.28,332.09-107,383.2-145.9l9.46,122.63A108.35,108.35,0,0,1,1760,1814.77Z" transform="translate(-765.41 -1027.37)"/>
    <path class="cls-8" d="M1360.88,1209.67H1540.3a303.79,303.79,0,0,1,303.79,303.79v189.86a108.36,108.36,0,0,1-108.36,108.36H1165.45a108.36,108.36,0,0,1-108.36-108.36V1513.46A303.79,303.79,0,0,1,1360.88,1209.67Z" transform="matrix(1, -0.08, 0.08, 1, -877.31, -911.32)"/>
    <path class="cls-9" d="M1757,1788.93l-568.59,43.86a108.35,108.35,0,0,1-116.37-99.7l-9.47-122.64c56.46,30.58,203.82,100.68,401.47,85.38,197.41-15.29,332.09-107,383.2-145.91l9.46,122.64A108.35,108.35,0,0,1,1757,1788.93Z" transform="translate(-765.41 -1027.37)"/>
    <path class="cls-10" d="M1748.05,1777.59l-555.95,42.88c-58.34,4.5-108.75-32.3-112.6-82.2l-7.92-102.57c54.83,25,198,82.08,391.28,67.12,193-14.94,325.59-93.2,375.94-126.31l7.92,102.57C1850.57,1729,1806.39,1773.09,1748.05,1777.59Z" transform="translate(-765.41 -1027.37)"/>
    <g>
      <path class="cls-11" d="M1898.09,1591.67c-22.5-2.11-34.9-51.51-39-50-5.18,1.92,31.38,74.61,6,102-11.24,12.14-34.53,15.27-46,6-21.92-17.69,11-71.09-6-85-21.58-17.62-77.66,65.56-176,77-65.13,7.58-107.78-21.08-127,3-19.39,24.31,15.92,63.67-6,95-18.69,26.72-68.73,32.95-83,16-18.26-21.68,29.83-72.05,10-97-13-16.3-50.67-16.37-64,0-18.92,23.24,22.75,65.44,4,93-14.39,21.15-58.87,25.64-85,8-32.88-22.19-11.9-62.68-42-97-41.21-47-146.85-46.68-187.38-1.79-20.43,22.64-17.16,48.3-36.62,53.79-23.52,6.65-61.21-23.94-59-48,2.9-31.56,74.1-47.27,71-58-2.6-9-51.6,6.67-66-14-8.69-12.46-3.52-36.35,10-47,23.16-18.24,69.73,3.22,71-1,.89-3-23.64-7.9-29-25-2.64-8.44-.46-19.39,6-24,9.19-6.55,25,1.22,29,3,36,16,105.82-13.59,236-52,68.91-20.33,105.61-28.64,150-33,22.7-2.22,41.5-2.83,54-3,254.77,64.26,335.4,59.19,357.59,39.2,3.63-3.27,21.58-21.25,33.41-16.2,8.9,3.8,13.15,20.12,10,33-4.38,17.93-21.22,21.6-20,30,2.15,14.84,55.07,6.85,66,29C1950.56,1548.91,1920.46,1593.77,1898.09,1591.67Z" transform="translate(-765.41 -1027.37)"/>
      <path class="cls-12" d="M1880.78,1578.22c-21.55-1.85-33.26-47-37.2-45.56-5,1.77,29.81,68.07,5.4,93.19-10.81,11.13-33.12,14.07-44.08,5.65-20.94-16.1,10.8-65-5.46-77.67-20.61-16-74.62,60.18-168.87,71-62.42,7.15-103.18-18.91-121.67,3.17-18.66,22.28,15,58.13-6.07,86.84-18,24.49-66,30.35-79.57,14.91-17.42-19.75,28.82-66,9.91-88.68-12.36-14.86-48.48-14.79-61.31.22-18.21,21.29,21.57,59.72,3.51,85-13.85,19.37-56.48,23.62-81.45,7.6-31.43-20.17-11.19-57.24-39.91-88.51-39.31-42.81-140.51-42.16-179.49-1-19.66,20.76-16.61,44.2-35.27,49.29-22.56,6.16-58.56-21.67-56.36-43.66,2.89-28.86,71.15-43.46,68.22-53.25-2.47-8.24-49.46,6.26-63.18-12.57-8.28-11.37-3.25-33.21,9.74-43,22.25-16.75,66.78,2.7,68-1.16.86-2.7-22.63-7.14-27.7-22.75-2.5-7.71-.37-17.72,5.83-22,8.83-6,23.92,1,27.77,2.64,34.43,14.48,101.42-12.78,226.26-48.33,66.09-18.82,101.27-26.54,143.81-30.67,21.76-2.11,39.77-2.74,51.75-2.93,81.82-27.55,139-20.48,176.68-8.34,59.2,19.11,125,68.5,165.75,42.94,9.81-6.17,22.08-18.95,32.06-14.91,8.51,3.44,12.53,18.33,9.46,30.12-4.26,16.4-20.39,19.81-19.26,27.49,2,13.55,52.74,6.07,63.13,26.27C1931.19,1539,1902.2,1580.06,1880.78,1578.22Z" transform="translate(-765.41 -1027.37)"/>
    </g>
    <path class="cls-13" d="M1603.34,1572.47c-33.11,6.36-76.26,41.08-97.74,82.51-10.78,20.8-13.14,37.52-26.22,40.74-19.19,4.72-33.83-26.4-71.66-51.9h0c-30.4-22-65-29.9-84.85-31-33.8-1.83-59,15-102.15,43.94-51.86,34.73-68,61.8-84.73,55-12.31-5-9.63-22.2-21.84-64-1-14.27-6.38-64.67-46.9-102.57-.31-.29-.29-.52-.42-.73-11.71-18.42-66.15,3.39-68.08-1.57-1.8-4.63,34.91-23.62,52.15-30.79,94.17-39.17,462.67-81.45,770.19-111.48a580.82,580.82,0,0,0-20.3,63.3c-3.12,12-13.93,41.31-18.06,98.84-3.5,48.63,2,81.21-15.1,90.35C1733.26,1671.58,1675,1558.68,1603.34,1572.47Z" transform="translate(-765.41 -1027.37)"/>
    <path class="cls-14" d="M1602.14,1557.73c-26.23,5.21-71.27,29.19-96.66,70-10.85,17.43-13.4,31.35-26.22,34.22-18.8,4.22-32.61-21.39-69.13-42h0s-40-22.58-82.33-24.41c-35.63-1.55-63.39,15.75-102.76,40.26-50.87,31.69-70,59.3-84.73,51.68-8.79-4.54-5.26-15.89-13.13-52.92-6.83-32.17-14.71-67.28-40.36-91.54a98.47,98.47,0,0,0-31.56-19.88l735.83-110.51a519.67,519.67,0,0,0-19.3,101.63c-6,68.66,5.09,99.07-10.72,109.09C1731.66,1642,1674.31,1543.39,1602.14,1557.73Z" transform="translate(-765.41 -1027.37)"/>
    <ellipse class="cls-15" cx="798.68" cy="460.31" rx="239" ry="104"/>
    <path class="cls-16" d="M1796.81,1502.49a65.75,65.75,0,0,0-7.71-12.54c-8.77-11.35-21.93-21.83-38.58-31-23.11-12.79-53-23.16-87.2-30.11h0c-13.77-2.79-28.24-5-43.28-6.64q-12.09-1.31-24.65-2.05-6.41-.39-12.91-.62-8.22-.3-16.58-.35h-3.37q-15.07,0-29.68.8c-52.26,2.81-99.28,13-135.46,28-26.6,11.07-47.33,24.78-60,40.16a65.45,65.45,0,0,0-10.18,16.66,48.17,48.17,0,0,0-3.71,18.36c0,24.2,19,46.48,50.86,64.15,22.74,12.61,52,22.88,85.65,29.83a510.25,510.25,0,0,0,102.49,10c2,0,4,0,5.93,0a521,521,0,0,0,77.54-6.49c28.31-4.59,54.08-11.45,76.14-20.07,27.17-10.62,48.73-23.9,62.48-38.91,10.91-11.91,16.91-24.9,16.91-38.5A48.75,48.75,0,0,0,1796.81,1502.49Zm-92.49-28.79,36.09,39.52a465.07,465.07,0,0,1-57.24,19.25l-27.86-48.68A459,459,0,0,0,1704.32,1473.7Zm-91.77,14.45h0l14,55.59q-13.92,1.88-28.5,2.93-15.6,1.11-30.61,1.16l-.74-59.46C1581.54,1489,1596.82,1489,1612.55,1488.15ZM1479.76,1476a461.25,461.25,0,0,0,61.21,10.48l-35.57,57.41a465.76,465.76,0,0,1-74.55-16.24Z" transform="translate(-765.41 -1027.37)"/>
    <path class="cls-17" d="M1800.51,1483.48c-.19-13.56-6.34-26.5-17.37-38.35-28.07-30.18-87.77-53.32-161.21-61.65q-8-.9-16.17-1.57-4.54-.37-9.15-.66-5.55-.36-11.19-.6-7.43-.33-15-.45c-1.68,0-3.36,0-5,0-1.29,0-2.59,0-3.89,0-85.35,0-160.25,19.47-202.53,48.75-21.42,14.84-34.46,32.2-36.25,50.82a43.66,43.66,0,0,0-.22,4.43,48.75,48.75,0,0,0,4.71,20.64c10.13,21.89,36.06,41.3,72.39,55.86,23.49,9.42,51.32,16.82,82.05,21.55a526.22,526.22,0,0,0,79.85,6q3.24,0,6.45,0a526.21,526.21,0,0,0,68.5-5.19,410.29,410.29,0,0,0,66.94-15.08c24.14-7.76,44.81-17.46,60.79-28.56s27.16-23.47,32.61-36.78a48.17,48.17,0,0,0,3.71-18.36C1800.52,1483.91,1800.52,1483.69,1800.51,1483.48Zm-369.66,44.16,48.91-51.65a461.25,461.25,0,0,0,61.21,10.48l-35.57,57.41A465.76,465.76,0,0,1,1430.85,1527.64Zm167.24,19q-15.6,1.11-30.61,1.16l-.74-59.46c14.8.67,30.08.64,45.81-.22h0l14,55.59Q1612.67,1545.62,1598.09,1546.67Zm85.08-14.2-27.86-48.68a459,459,0,0,0,49-10.09l36.09,39.52A465.07,465.07,0,0,1,1683.17,1532.47Z" transform="translate(-765.41 -1027.37)"/>
    <g>
      <ellipse class="cls-18" cx="496.71" cy="479.77" rx="168.9" ry="104"/>
      <ellipse class="cls-19" cx="496.01" cy="440.77" rx="168.9" ry="104"/>
    </g>
    <ellipse class="cls-15" cx="508.59" cy="430.13" rx="146.5" ry="104"/>
    <path class="cls-20" d="M1430.58,1467c-.13-13.56-4.47-26.5-12.24-38.35-19.79-30.18-61.88-53.32-113.66-61.65q-5.62-.9-11.4-1.57-3.21-.37-6.45-.66-3.91-.36-7.89-.6-5.24-.33-10.55-.45c-1.19,0-2.37,0-3.56,0-.91,0-1.82,0-2.74,0-60.17,0-113,19.47-142.79,48.75-15.1,14.84-24.29,32.2-25.55,50.82-.11,1.47-.16,3-.16,4.43a66.16,66.16,0,0,0,3.32,20.64c7.14,21.89,25.42,41.3,51,55.86,16.56,9.42,36.18,16.82,57.84,21.55a264.25,264.25,0,0,0,56.3,6c1.52,0,3,0,4.55,0a264.08,264.08,0,0,0,48.29-5.19,219.72,219.72,0,0,0,47.2-15.08c17-7.76,31.59-17.46,42.85-28.56s19.15-23.47,23-36.78a66,66,0,0,0,2.61-18.36C1430.59,1467.43,1430.59,1467.21,1430.58,1467ZM1170,1511.16l34.48-51.65A239.6,239.6,0,0,0,1247.6,1470l-25.07,57.41A247.82,247.82,0,0,1,1170,1511.16Zm117.9,19q-11,1.11-21.58,1.16l-.52-59.46a228.2,228.2,0,0,0,32.3-.22h0l9.89,55.59C1301.42,1528.51,1294.73,1529.5,1287.87,1530.19Zm60-14.2-19.65-48.68a242.67,242.67,0,0,0,34.56-10.09l25.44,39.52A268,268,0,0,1,1347.86,1516Z" transform="translate(-765.41 -1027.37)"/>
    <g>
      <path class="cls-21" d="M1843.14,1483.19a1034.14,1034.14,0,0,0-784.67,60.53h0c-12.91-167.28,112.24-313.35,279.52-326.25l178.9-13.8c167.28-12.91,313.34,112.24,326.25,279.52Z" transform="translate(-765.41 -1027.37)"/>
      <path class="cls-22" d="M1823.59,1457.33c-78.5-21.81-213.38-49.63-382.12-36.4-167.23,13.12-295.15,60.86-369.15,94.35h0c-10.89-141.24,110.11-265.75,270.27-278.11L1513.87,1224c160.16-12.36,298.83,92.13,309.72,233.37Z" transform="translate(-765.41 -1027.37)"/>
    </g>
  </g>
</svg>
